<?xml version="1.0" encoding="UTF-8" standalone="no"?>
<svg
   xmlns:dc="http://purl.org/dc/elements/1.1/"
   xmlns:cc="http://creativecommons.org/ns#"
   xmlns:rdf="http://www.w3.org/1999/02/22-rdf-syntax-ns#"
   xmlns:svg="http://www.w3.org/2000/svg"
   xmlns="http://www.w3.org/2000/svg"
   width="100%"
   height="100%"
   viewBox="0 0 64 64"
   version="1.1"
   xml:space="preserve"
   style="fill-rule:evenodd;clip-rule:evenodd;stroke-linecap:round;stroke-linejoin:round;stroke-miterlimit:2;"
   id="svg27">
  <metadata
   id="metadata33">
    <rdf:RDF>
      <cc:Work
   rdf:about="">
        <dc:format>image/svg+xml</dc:format>

        <dc:type
   rdf:resource="http://purl.org/dc/dcmitype/StillImage" />

      </cc:Work>

    </rdf:RDF>

  </metadata>

  <defs
   id="defs31" />

  
  <path
   d="M37,23l0,17.263c0,0.751 0.328,1.465 0.896,1.956c1.905,1.641 3.104,4.072 3.104,6.781c0,4.967 -4.033,9 -9,9c-4.967,0 -9,-4.033 -9,-9c0,-2.709 1.199,-5.14 3.095,-6.79c0.566,-0.489 0.892,-1.2 0.892,-1.947c0.013,-4.631 0.013,-20.923 0.013,-29.263c0,-1.326 0.527,-2.598 1.464,-3.536c0.938,-0.937 2.21,-1.464 3.536,-1.464l0,0c2.761,0 5,2.239 5,5c0,3.664 0,8 0,8"
   style="fill:none;stroke:#222a33;stroke-width:1.5px;"
   id="path3" />

  <path
   d="M37,49.5c0,2.76 -2.24,5 -5,5c-2.76,0 -5,-2.24 -5,-5c0,-1.574 0.729,-2.979 1.867,-3.896c0.706,-0.578 1.115,-1.441 1.114,-2.353c0.019,-3.219 0.019,-12.284 0.019,-15.751c0,-1.105 0.895,-2 2,-2c1.105,0 2,0.895 2,2l0,15.751c0,0.917 0.412,1.786 1.121,2.367"
   style="fill:none;stroke:#222a33;stroke-width:1.5px;"
   id="path5" />

  <path
   d="M33.5,23l3.5,0"
   style="fill:none;stroke:#222a33;stroke-width:1.5px;"
   id="path7" />

  <path
   d="M33.5,19l3.5,0"
   style="fill:none;stroke:#222a33;stroke-width:1.5px;"
   id="path9" />

  <path
   d="M33.5,15l3.5,0"
   style="fill:none;stroke:#222a33;stroke-width:1.5px;"
   id="path11" />

  <circle
   cx="45"
   cy="29"
   r="2"
   style="fill:none;stroke:#222a33;stroke-width:1.5px;"
   id="circle13" />

  <circle
   cx="17"
   cy="14"
   r="3"
   style="fill:none;stroke:#222a33;stroke-width:1.5px;"
   id="circle15" />

  <path
   d="M19,47.063c-2.962,-1.474 -5,-4.532 -5,-8.063c0,-4.967 4.033,-9 9,-9c1.436,0 2.795,0.337 4,0.937"
   style="fill:none;stroke:#222a33;stroke-width:1.5px;"
   id="path17" />

  <path
   d="M23,27l0,-3"
   style="fill:none;stroke:#222a33;stroke-width:1.5px;"
   id="path19" />

  <path
   d="M14.515,47.485l-2.122,2.122"
   style="fill:none;stroke:#222a33;stroke-width:1.5px;"
   id="path21" />

  <path
   d="M8,39l3,0"
   style="fill:none;stroke:#222a33;stroke-width:1.5px;"
   id="path23" />

  <path
   d="M12.393,28.393l2.122,2.122"
   style="fill:none;stroke:#222a33;stroke-width:1.5px;"
   id="path25" />

</svg>
